# xmcd
#
# Track frame offsets: 
#        150
#        15532
#        24730
#        47087
#        61582
#        73802
#        88870
#        101835
#        110745
#        124962
#        134622
#        146527
#        155665
#        165315
#
# Disc length: 2407 seconds
#
# Revision: 0
# Processed by: cddbd v1.5.2PL0 Copyright (c) Steve Scherf et al.
# Submitted via: ExactAudioCopy v0.99pb3
#
DISCID=c809650e
DTITLE=Kyle O'Brien - Kyle's Big Hit
DYEAR=2002
DGENRE=Bluegrass
TTITLE0=Born Fifty Years Too Late
TTITLE1=Why Don't You Love Me?
TTITLE2=I Dreamed of a Rockabilly Heaven
TTITLE3=Act Naturally
TTITLE4=Action Packed
TTITLE5=God Wants Me to be a Cowboy
TTITLE6=Blue Suede Shoes
TTITLE7=Honky Tonk Man
TTITLE8=Sleepy-Eyed John
TTITLE9=Hey Good Lookin'
TTITLE10=Take Me Out to the Ballgame
TTITLE11=Baseball, Baseball
TTITLE12=Camptown Races
TTITLE13=Casey Jones
EXTD=
EXTT0=
EXTT1=
EXTT2=
EXTT3=
EXTT4=
EXTT5=
EXTT6=
EXTT7=
EXTT8=
EXTT9=
EXTT10=
EXTT11=
EXTT12=
EXTT13=
PLAYORDER=
